<svg fill="#FA5252" xmlns="http://www.w3.org/2000/svg"  viewBox="0 0 50 50" width="50px" height="50px"><path d="M45.139,22.363c-0.856-1.628-2.292-2.823-4.043-3.366c-0.787-0.244-1.599-0.339-2.407-0.295	c-0.849-1.474-2.229-2.61-3.908-3.131c-0.026-0.008-0.051-0.016-0.077-0.024l0.913-3.146c1.113-3.835-1.088-7.866-4.906-8.984	c-3.818-1.117-7.829,1.093-8.942,4.928l-0.189,0.653l-0.19-0.653c-0.539-1.858-1.766-3.394-3.455-4.324	c-1.688-0.931-3.638-1.145-5.487-0.603c-1.85,0.542-3.379,1.775-4.305,3.471c-0.927,1.697-1.14,3.655-0.6,5.512l2.8,9.65	c-1.339,0.806-2.237,2.278-2.237,3.957v5.265C8.106,40.496,15.575,48,24.756,48c7.383,0,13.878-4.942,15.957-11.94	c1.712-0.817,3.034-2.317,3.603-4.17l1.313-4.273C46.17,25.858,45.996,23.992,45.139,22.363z M30.5,27.25	c0-0.707-0.145-1.38-0.399-1.997l1.022-3.518c0.307-1.056,1.412-1.666,2.471-1.359c1.055,0.307,1.664,1.415,1.357,2.471	l-2.286,7.875c-0.307,1.055-1.412,1.663-2.471,1.357c-0.568-0.165-1.023-0.573-1.26-1.097C29.899,30.03,30.5,28.71,30.5,27.25z M36.127,29.864l1.345-4.63c0.277-0.954,1.281-1.504,2.233-1.229c0.462,0.134,0.845,0.44,1.076,0.862	c0.232,0.422,0.286,0.908,0.151,1.371l-1.344,4.63c-0.276,0.955-1.275,1.507-2.234,1.229C36.401,31.82,35.851,30.818,36.127,29.864z M12.479,9.28c0.291-0.533,0.771-0.921,1.353-1.091c1.199-0.349,2.46,0.344,2.809,1.548l2.564,8.835	c0.308,1.06,1.275,1.789,2.374,1.789c1.099,0,2.067-0.729,2.374-1.789l2.564-8.834c0.35-1.206,1.614-1.898,2.809-1.549	c1.2,0.351,1.891,1.617,1.541,2.822l-2.265,8.995c-0.145,0.281-0.268,0.578-0.36,0.892l-0.51,1.754C26.99,22.25,26.153,22,25.25,22	h-9.77l-3.189-10.989C12.121,10.427,12.188,9.812,12.479,9.28z M24.756,43.031c-6.448,0-11.694-5.265-11.703-11.74v-4.356	c0-0.893,0.441-1.935,1.686-1.935H25.25c1.24,0,2.25,1.01,2.25,2.25s-1.01,2.25-2.25,2.25H18c-0.829,0-1.5,0.672-1.5,1.5	s0.671,1.5,1.5,1.5h1.489c2.211,0,4.011,1.799,4.011,4.011V38c0,0.828,0.671,1.5,1.5,1.5s1.5-0.672,1.5-1.5v-1.489	c0-1.49-0.468-2.874-1.263-4.011h0.013c0.357,0,0.706-0.037,1.043-0.105c0.614,1.223,1.709,2.172,3.065,2.565	c0.463,0.135,0.931,0.199,1.391,0.199c1.368-0.001,2.669-0.571,3.602-1.54c0.437,0.473,0.972,0.855,1.587,1.125	C34.443,39.606,29.909,43.031,24.756,43.031z"/></svg>